PathFileType	4	(X/Y/Z)	regression/subject04/trials/walk2/markers.trc
DataRate	CameraRate	NumFrames	NumMarkers	Units	OrigDataRate	OrigDataStartFrame	OrigNumFrames
199.9999999999954	199.9999999999954	4	64	m	199.9999999999954	55	223
Frame#	Time	CLAV			C7			RACR			RASH			RPSH			RLEL			RMEL			RUA1			RUA2			RUA3			RFAsuperior			RFAradius			RFAulna			RASI			RPSI			RCAL			RTOE			RMT5			RTH1			RTH2			RTH3			RTB1			RTB2			RTB3			RLFC			RMFC			RLMAL			RMMAL			RHJC			RKJC			REJC			RAJC			RSJC			LACR			LASH			LPSH			LLEL			LMEL			LUA1			LUA2			LUA3			LFAsuperior			LFAradius			LFAulna			LASI			LPSI			LCAL			LTOE			LMT5			LTH1			LTH2			LTH3			LTB1			LTB2			LTB3			LLFC			LMFC			LLMAL			LMMAL			LHJC			LKJC			LEJC			LAJC			LSJC			
		X1	Y1	Z1	X2	Y2	Z2	X3	Y3	Z3	X4	Y4	Z4	X5	Y5	Z5	X6	Y6	Z6	X7	Y7	Z7	X8	Y8	Z8	X9	Y9	Z9	X10	Y10	Z10	X11	Y11	Z11	X12	Y12	Z12	X13	Y13	Z13	X14	Y14	Z14	X15	Y15	Z15	X16	Y16	Z16	X17	Y17	Z17	X18	Y18	Z18	X19	Y19	Z19	X20	Y20	Z20	X21	Y21	Z21	X22	Y22	Z22	X23	Y23	Z23	X24	Y24	Z24	X25	Y25	Z25	X26	Y26	Z26	X27	Y27	Z27	X28	Y28	Z28	X29	Y29	Z29	X30	Y30	Z30	X31	Y31	Z31	X32	Y32	Z32	X33	Y33	Z33	X34	Y34	Z34	X35	Y35	Z35	X36	Y36	Z36	X37	Y37	Z37	X38	Y38	Z38	X39	Y39	Z39	X40	Y40	Z40	X41	Y41	Z41	X42	Y42	Z42	X43	Y43	Z43	X44	Y44	Z44	X45	Y45	Z45	X46	Y46	Z46	X47	Y47	Z47	X48	Y48	Z48	X49	Y49	Z49	X50	Y50	Z50	X51	Y51	Z51	X52	Y52	Z52	X53	Y53	Z53	X54	Y54	Z54	X55	Y55	Z55	X56	Y56	Z56	X57	Y57	Z57	X58	Y58	Z58	X59	Y59	Z59	X60	Y60	Z60	X61	Y61	Z61	X62	Y62	Z62	X63	Y63	Z63	X64	Y64	Z64	

56	1.685	1.586149436564715	1.460288022374178	-0.4433201572554909	1.475030735395777	1.544148849474447	-0.4366752800799332	1.558032837611574	1.50875481570101	-0.2906918607459666	1.599328141686706	1.440946402297355	-0.248681040780899	1.500149421934771	1.463939103961703	-0.2450131778402496	1.477325202179809	1.175955977278067	-0.1437232301148168	1.447992530555979	1.159736007702471	-0.230464449585559	1.537850002962314	1.406103546435619	-0.2150039663352444	1.484672037047519	1.258023478911919	-0.1812718190252409	1.546101672684784	1.313452108077555	-0.1993268969752773	1.520047865288024	1.089814994343295	-0.1989555583278327	1.622895295601449	0.9443044863991331	-0.2057537907191471	1.571130463305668	0.9116862515482065	-0.1881039920630881	1.566373588227743	1.008068797510751	-0.328148052614427	1.396933440260316	1.04871559507477	-0.4091981572733089	1.410658922211334	0.04819067427160139	-0.3744060514603174	1.671672391654755	0.05579966527350175	-0.4045366754468202	1.605227985414677	0.01714860792953385	-0.3088588495787273	1.526835835406143	0.7677707748277278	-0.3029690403443816	1.612812538936681	0.6924405400840904	-0.3713316189108358	1.539209349299071	0.6076783479893562	-0.3059075564574414	1.526082334512941	0.3200785067364088	-0.3240550581497038	1.558279299053399	0.2335653566458175	-0.3849407428630939	1.523205209123583	0.1644872545329188	-0.3182055644481269	1.54266508927858	0.4958723741760263	-0.3166111178419909	1.54457315783566	0.4946707181297563	-0.4354629288310033	1.491746479441418	0.06308723604645933	-0.3199619172280478	1.499622622896223	0.06224436535116462	-0.4209088712054983	1.485043691831847	0.9228324513615992	-0.3813002757949968	1.546031190028313	0.4936182816601944	-0.3782672970032285	1.466120696316177	1.161319592803829	-0.1935369911648804	1.481636792945945	0.0517598283930441	-0.3781145150551901	1.552867870418912	1.451717333392019	-0.2469628303863518	1.550007297747342	1.521791234329323	-0.589423103181927	1.588833204941172	1.457994026657456	-0.6393295885817705	1.481720187609081	1.482826144454952	-0.6353682966058691	1.45183399742692	1.193915670435356	-0.7307242430316767	1.430681693509022	1.178877677785923	-0.6414271611233946	1.523453004732342	1.423253847627366	-0.6675829987467385	1.46437455194185	1.276065846616072	-0.6947655113786428	1.528334626545819	1.330350648713935	-0.6831815559513628	1.478857002454007	1.09704161140888	-0.6828987206533889	1.544336885532046	0.9315687429337469	-0.6942227004567438	1.485935921540473	0.9139231528536598	-0.7124716197557187	1.559994008891139	1.015006971750682	-0.5931430272794875	1.394698720259793	1.051145986786043	-0.5020239595208469	1.19187698331802	0.2951804258750847	-0.5862978367597859	1.348613515013603	0.09311246704593594	-0.5255032471696298	1.280027911885378	0.1113355432285658	-0.6256378778187114	1.541133266872116	0.7844374605343531	-0.6301691986444914	1.635881529060087	0.7151648832697118	-0.5672076483440265	1.572806587701144	0.6272511176063946	-0.6391457346467732	1.460194665392167	0.3937820205563231	-0.6283109221076201	1.41912667280687	0.3129425094422563	-0.5650129782619648	1.346923591887226	0.2870003794362839	-0.632609435347133	1.589815381203262	0.5162000277978074	-0.6368132378315002	1.592352199087777	0.5063515808113468	-0.5183758690443827	1.252324012316768	0.2387941874614147	-0.6312742208579856	1.254600755407782	0.2368186983985532	-0.5300618428209332	1.481206925893171	0.9270051638863307	-0.540671864275992	1.596974337786167	0.50291864311288	-0.575080329444934	1.445195429846299	1.179844356437303	-0.6799393728937657	1.23565516822747	0.240560697115355	-0.5735570688180766	1.542372933673377	1.46876495775212	-0.6376113781872232	
57	1.69	1.592164660628699	1.460866117410143	-0.4433231991851928	1.481144379246413	1.54484328757743	-0.4365048066632145	1.564396233865376	1.509441268205898	-0.2906656108125983	1.605704869542896	1.441612902560421	-0.2487001310293119	1.506556916491982	1.46470829638296	-0.2448501712885299	1.485067043116252	1.176481716963341	-0.1431832540067776	1.455417479627373	1.160116348847845	-0.2297893179068268	1.544528208027327	1.406787006348974	-0.2148487408427419	1.491982957880713	1.258551758559846	-0.1808080560857006	1.553151950963261	1.314172090345977	-0.1991561318092918	1.528402343913444	1.090893317460132	-0.1987680428049	1.63277870140168	0.9465171136580767	-0.2063973010312474	1.581431170894183	0.913290123807514	-0.1886642596606238	1.571893817020066	1.008150688132586	-0.3280180659983807	1.402489870156033	1.049412614393762	-0.4088326784688677	1.410698131836774	0.04834015734916658	-0.374331462810265	1.671710876568883	0.05576041332757849	-0.4045153884230803	1.605259131569695	0.01721061503852207	-0.3088018138597811	1.530846292888465	0.7678085255578715	-0.3031202081485703	1.61599817469447	0.6916923380535851	-0.3716443862864559	1.541738062095969	0.6076089864386586	-0.306086836458089	1.526909837092386	0.3200778906162244	-0.3241457429596042	1.558830015591556	0.2334455911203643	-0.3850077438786982	1.523596051705274	0.1644981472635866	-0.3182216840422392	1.544143181261034	0.4957764379584949	-0.3168004095175075	1.545819959686822	0.4945631305994652	-0.4356555902106659	1.491849930656942	0.06318664487899944	-0.3199138661600415	1.499670381261635	0.06227426934358454	-0.4208645457381261	1.490340298242738	0.9232527361097448	-0.3813688569861983	1.547320486281179	0.4935351928577817	-0.3784499495853906	1.473697999301337	1.161780429165495	-0.1929405898669117	1.481677578535523	0.0518606432657378	-0.3780558088434694	1.559259010936195	1.45243193979659	-0.2468966173887426	1.55579892765591	1.522329614574865	-0.5893873702508953	1.594462238345903	1.458466893965995	-0.6393362779870849	1.487382449050916	1.483409919294337	-0.6351783214670403	1.455404669782383	1.195097090041769	-0.7305541913228257	1.434607903983074	1.180063878209918	-0.6411728336714603	1.528681115901923	1.42392669036345	-0.6674695266591522	1.468605528039113	1.277124125400387	-0.6945507172165485	1.532939848681314	1.331017425995232	-0.6832137756540863	1.482016156498498	1.097976528208308	-0.6829567702209428	1.54641060892731	0.9321144113720601	-0.6947986663056614	1.487848728537626	0.9148779998417748	-0.7129225395887926	1.5653527712466	1.01589177413509	-0.5929868645383655	1.400198589643158	1.052124260225378	-0.5016493114111653	1.206092151613982	0.2902845167555865	-0.5857802490549349	1.368398827583226	0.09253702826427099	-0.5253960109793717	1.299173218186495	0.1089476169227863	-0.6254035971955207	1.548249172273354	0.7861340917234242	-0.6301787631258602	1.64400305425455	0.71823102544466	-0.5672466756009964	1.582106908787788	0.62939952566242	-0.6390811972757139	1.473177899808997	0.3939613682841505	-0.6280751567013647	1.433555960968309	0.3124433520073989	-0.5647257190397479	1.361781424370427	0.2852216997179233	-0.6322753863727009	1.600666091635227	0.5185982003200664	-0.6366922268114683	1.603430121224624	0.5088615629627679	-0.5182506981501014	1.268036379156191	0.2353759226388345	-0.6308735295612031	1.270398374188486	0.2334794171514445	-0.529661594343765	1.486406424188856	0.9279083307086479	-0.5407247027889074	1.608063145144427	0.5054839258289199	-0.5749557919841777	1.448935748532706	1.180996985056739	-0.6797554158518037	1.251368495824642	0.2368741431884442	-0.5731485128036534	1.548016379739202	1.469285931202163	-0.6375327643465155	
58	1.695	1.598182699174771	1.461388565202223	-0.4433496796502367	1.487264815321583	1.545486669191925	-0.4363575118204972	1.570770192573191	1.510079374940558	-0.2906646128744695	1.612090984639248	1.442231224207959	-0.2487431071009869	1.512975308669551	1.465433389273383	-0.2447084679155349	1.492779746654665	1.176972853876996	-0.1426824822946301	1.462825022648482	1.160464212972959	-0.2291562440846153	1.551207945056136	1.407426551351801	-0.2147195380837701	1.499277812020752	1.259043406089529	-0.1803805849284164	1.560192398936127	1.314848481720542	-0.1990118903104006	1.536726287461925	1.091948352755761	-0.1986223238509524	1.642617285241476	0.9487262610528685	-0.2070867698096822	1.591691959331444	0.9148930435342731	-0.1892826390166215	1.577393871673139	1.008188894480047	-0.3278816528731309	1.408032671344161	1.050059188204789	-0.4084726429848149	1.410734472212984	0.04848669313584388	-0.3742638992838712	1.671748259289427	0.05571302457570636	-0.4044858377840587	1.605282882212117	0.01726387304461942	-0.3087412498756091	1.534839004966542	0.7678124740142256	-0.3032648484952746	1.619164538611718	0.6909208789758396	-0.3719450272419366	1.544252341723696	0.6075197609215299	-0.306258019804077	1.527728417321474	0.3200698878362329	-0.3242313827428035	1.559376199082571	0.2333207270597493	-0.3850691775862471	1.523979105015911	0.1645027693136682	-0.3182358443063857	1.545610117807861	0.4956704740415418	-0.3169807812958383	1.547062472040103	0.4944489618702847	-0.4358388321524781	1.491946922409509	0.06328035976593804	-0.3198678002430266	1.499717974175395	0.06230069931485627	-0.4208216639823986	1.495623347859898	0.923627176137416	-0.3814338965974788	1.548602459851741	0.4934446363903983	-0.3786230003939418	1.481252238062317	1.162207372911515	-0.1923843193792899	1.481715752778091	0.05195699822914523	-0.3779999360261629	1.565660246231244	1.453100278432857	-0.2468530803745619	1.561590342620667	1.52280772267857	-0.5893758986117297	1.600086565470563	1.45887598663459	-0.6393655576804809	1.49304163542329	1.483934324905248	-0.6350081473601927	1.458957867414346	1.196236599649057	-0.7303995017033775	1.43853664599785	1.181197382390348	-0.6409326045771346	1.533900191680377	1.424542699482612	-0.6673751312788025	1.472825646444935	1.278133292333193	-0.6943500389012967	1.537532631685502	1.331632742581503	-0.6832715105831366	1.485189170801976	1.098877193321982	-0.6830355288415552	1.548539252989205	0.9326518143512883	-0.69540518044577	1.489821395504726	0.9158090532226641	-0.7133939855755328	1.570712741447681	1.016726536108869	-0.5928224860158537	1.405692320271911	1.053049861648687	-0.5012794798529067	1.220563551868876	0.2850920433564488	-0.5852463149325178	1.38842367792336	0.09188516540701619	-0.5253475430688119	1.318574073577441	0.1064465610823452	-0.6252074862189732	1.555289148931405	0.7878001546137472	-0.630219293703807	1.652040948520121	0.7212572357479359	-0.5673606491914792	1.59128975805975	0.6315411065625894	-0.6390731007120217	1.486172539899925	0.394073379922704	-0.6278902457816867	1.448107070794248	0.3118561007685929	-0.5644901248236416	1.376788734569441	0.2833049848537934	-0.6319741133849843	1.61137437323056	0.5210069968343826	-0.636643498790097	1.614409139474696	0.5113777460536667	-0.5181998184965265	1.283976258690558	0.2317460643355418	-0.6304833975898708	1.28645650132732	0.2299168231674336	-0.5292730529739825	1.491605225107852	0.9287618301435403	-0.540772923629229	1.619030537875396	0.5080670162164203	-0.5749074144401193	1.452669650083706	1.182101858084613	-0.6795876635572554	1.267331475108971	0.2329513186727708	-0.5727448567290777	1.553655827062558	1.469745040859488	-0.6374755309540558	
59	1.7	1.604204296064052	1.461853143531118	-0.4434000198008922	1.493393031872068	1.546077028635552	-0.436233474595516	1.577155741280855	1.510666467892462	-0.2906891651231336	1.618487383868097	1.442798462269857	-0.248810516685457	1.519405589001748	1.466111724508449	-0.2445884638829139	1.500463363094278	1.177427289145005	-0.1422184261465897	1.470213534168775	1.160777470031002	-0.2285622942921907	1.557890251032283	1.408019574078689	-0.2146162791937398	1.506556761134438	1.259496226772318	-0.179987557897374	1.567223521693594	1.315478557623553	-0.1988936865653876	1.545018253886278	1.092977765802412	-0.1985166499273506	1.652409461521715	0.9509296806894507	-0.2078219089905027	1.601911824588455	0.9164929581432339	-0.1899567668295357	1.582874664994556	1.008185694432335	-0.3277383322059632	1.413562249694991	1.050653420291261	-0.4081189495614453	1.410768791960413	0.04863128634208427	-0.3742032050099176	1.671785336085818	0.0556567085873195	-0.4044486941261743	1.605300070007749	0.0173080733832895	-0.3086776061624	1.538817638327221	0.7677826736111351	-0.3034016750688431	1.622315779864444	0.6901267494549665	-0.3722326111953076	1.546756917664519	0.6074106677365162	-0.3064201894981879	1.528542036627658	0.3200544687015809	-0.3243116565776909	1.559920590289034	0.2331905039346424	-0.3851250947498853	1.524356726566813	0.1645011077499083	-0.3182480548712668	1.547071349990111	0.495554408050876	-0.3171515662466326	1.548305956687153	0.4943281990638649	-0.4360120299680222	1.492038736045074	0.06336869576209975	-0.3198237869304444	1.499766153320414	0.06232406323743556	-0.4207803486250483	1.500895306499391	0.9239557164342753	-0.3814937149023032	1.549882616004762	0.4933464724808129	-0.3787858546581693	1.488782468182218	1.16259825312989	-0.1918654993432499	1.481752176992046	0.05204941386096212	-0.3779469416910036	1.572072517062956	1.453719559965525	-0.2468326960501057	1.56738229172011	1.523223909377827	-0.5893888521921408	1.605706719057892	1.459219731904565	-0.6394177997756971	1.498698380602235	1.484398055122243	-0.6348579827489506	1.462498448586911	1.197331358964893	-0.7302595086218197	1.442471775129931	1.182275358903875	-0.6407062885026968	1.539111726666273	1.42510009689715	-0.6672999493976716	1.477038416527029	1.279090766653951	-0.6941633049046111	1.542115600607093	1.332194836226104	-0.6833541970516958	1.488380035350277	1.099740155161024	-0.6831351789732855	1.550724473004125	0.933175833285889	-0.6960431447228151	1.491854646327921	0.9167117444031655	-0.7138852237601767	1.576075504443178	1.017508556977017	-0.5926496938758645	1.41118055346249	1.053919150881237	-0.5009154627880735	1.235297304695462	0.2796202866461267	-0.5846988984592214	1.408674744719471	0.09117144169946134	-0.5253602213104722	1.338221915770054	0.1038498948322929	-0.6250530768038878	1.562254212567536	0.7894280007595564	-0.6302875672287943	1.65999410519501	0.7242337722333873	-0.5675443929322102	1.600352353684692	0.63366569825714	-0.6391170981658021	1.499174379955339	0.3941173544847058	-0.6277540850326785	1.462774172074297	0.3111865626293885	-0.5643053270014765	1.391943038995709	0.2812592437138201	-0.6317061147070496	1.621934575199425	0.5234147822465831	-0.6366620261122923	1.625281412071903	0.5138904746973443	-0.5182182676152887	1.300144147612141	0.2279197255761463	-0.6301062575428217	1.302774479079581	0.2261473818554027	-0.5288986899494738	1.496806198701101	0.9295626129983099	-0.5408150173887319	1.629869006623255	0.5106571252666366	-0.5749300985803854	1.456401462553002	1.183156206630247	-0.6794356233938029	1.28354498002314	0.2288086549807624	-0.5723488510991922	1.55929185225275	1.470140829600233	-0.6374399791403458	
